<svg width="110" height="110" viewBox="0 0 110 110" fill="none" xmlns="http://www.w3.org/2000/svg">
<g filter="url(#filter0_d)">
<rect x="5" y="1" width="100" height="100" fill="white"/>
</g>
<path d="M74.4444 26H35.5556C32.4861 26 30 28.4861 30 31.5556V70.4445C30 73.5139 32.4861 76 35.5556 76H74.4445C77.5139 76 80 73.5139 80 70.4444V31.5556C80 28.4861 77.5139 26 74.4444 26ZM63.3333 48.2223C63.3333 51.2917 60.8473 53.7779 57.7777 53.7779H52.2221V59.3333H63.3333V64.8889H46.6667V53.7779C46.6667 50.7085 49.1527 48.2223 52.2223 48.2223H57.7779V42.6667H46.6667V37.1111H57.7777C60.8473 37.1111 63.3333 39.5973 63.3333 42.6667V48.2223Z" fill="#0500FF"/>
<defs>
<filter id="filter0_d" x="0" y="0" width="110" height="110" filterUnits="userSpaceOnUse" color-interpolation-filters="sRGB">
<feFlood flood-opacity="0" result="BackgroundImageFix"/>
<feColorMatrix in="SourceAlpha" type="matrix" values="0 0 0 0 0 0 0 0 0 0 0 0 0 0 0 0 0 0 127 0"/>
<feOffset dy="4"/>
<feGaussianBlur stdDeviation="2.5"/>
<feColorMatrix type="matrix" values="0 0 0 0 0 0 0 0 0 0 0 0 0 0 0 0 0 0 0.3 0"/>
<feBlend mode="normal" in2="BackgroundImageFix" result="effect1_dropShadow"/>
<feBlend mode="normal" in="SourceGraphic" in2="effect1_dropShadow" result="shape"/>
</filter>
</defs>
</svg>
