<svg width="195" height="195" viewBox="0 0 195 195" fill="none" xmlns="http://www.w3.org/2000/svg">
<g filter="url(#filter0_d)">
<path fill-rule="evenodd" clip-rule="evenodd" d="M15 10H180V175H15V10ZM97.0372 108.524C98.7216 108.524 99.9937 107.935 100.926 106.723C101.886 105.476 102.372 103.82 102.372 101.803V96.8288C102.372 94.8506 101.88 93.2153 100.91 91.9685C99.9648 90.7541 98.6919 90.1638 97.0186 90.1638C95.3495 90.1638 94.0973 90.7486 93.1901 91.9512C92.2531 93.1936 91.7781 94.8346 91.7781 96.8291V101.803C91.7781 103.822 92.2591 105.478 93.2076 106.726C94.1267 107.936 95.3797 108.524 97.0372 108.524ZM140.724 79.5938C140.724 82.4599 140.291 85.2777 139.433 87.9907C148.877 90.3128 155.587 98.775 155.587 108.639C155.587 120.37 146.043 129.915 134.312 129.915H57.3209C45.5899 129.915 36.0459 120.371 36.0459 108.639C36.0459 98.5238 43.2672 89.7949 53.0542 87.7986C52.7606 86.3068 52.6121 84.7838 52.6121 83.2541C52.6121 70.3504 63.1098 59.8527 76.0132 59.8527C80.8851 59.8527 85.6612 61.3923 89.6109 64.2124C94.7477 56.4716 103.526 51.7179 112.849 51.7179C128.219 51.7179 140.724 64.223 140.724 79.5938ZM81.1885 95.6925L81.4041 95.0437L81.4054 94.9453C81.4583 91.7697 80.4511 89.2171 78.4115 87.3584C76.392 85.5183 73.5757 84.5855 70.0412 84.5855C66.6619 84.5855 63.8717 85.7295 61.7479 87.9858C59.635 90.2307 58.5638 93.1319 58.5638 96.6083V102.043C58.5638 105.536 59.6626 108.44 61.83 110.673C64.0024 112.912 66.8597 114.047 70.3232 114.047C73.7614 114.047 76.5007 113.115 78.4649 111.277C80.4442 109.425 81.4209 106.904 81.3679 103.781L81.3664 103.682L81.1503 103.033H74.7177V103.679C74.7177 105.325 74.3583 106.563 73.6496 107.358C72.9597 108.132 71.8405 108.525 70.3234 108.525C68.7921 108.525 67.613 107.953 66.7187 106.778C65.7954 105.565 65.3273 103.968 65.3273 102.031V96.5636C65.3273 94.6451 65.7732 93.0565 66.6529 91.8415C67.4971 90.6745 68.6055 90.1073 70.0415 90.1073C71.6729 90.1073 72.8719 90.5196 73.6054 91.3326C74.3562 92.1652 74.7368 93.4148 74.7368 95.0471V95.6925H81.1885ZM105.785 110.559C108.021 108.251 109.154 105.297 109.154 101.779V96.8523C109.154 93.3475 108.017 90.3967 105.775 88.0818C103.527 85.7616 100.581 84.585 97.0184 84.585C93.4785 84.585 90.5597 85.7628 88.343 88.0852C86.1342 90.3993 85.0145 93.349 85.0145 96.8523V101.779C85.0145 105.296 86.1381 108.249 88.3538 110.557C90.5762 112.872 93.4978 114.046 97.0373 114.046C100.601 114.046 103.543 112.873 105.785 110.559ZM113.308 113.651H133.292H133.292V108.129H122.483L126.445 103.815C128.553 101.531 130.091 99.6517 131.016 98.2289C131.99 96.7309 132.484 95.0719 132.484 93.2979C132.484 90.6758 131.6 88.5411 129.856 86.9536C128.13 85.382 125.747 84.585 122.774 84.585C119.75 84.585 117.301 85.5134 115.497 87.3445C113.691 89.1773 112.809 91.4454 112.876 94.0853L112.879 94.1822L113.095 94.8274H119.546V94.1819C119.546 92.9047 119.833 91.882 120.399 91.1428C120.934 90.446 121.71 90.1073 122.774 90.1073C123.724 90.1073 124.427 90.3923 124.923 90.9786C125.447 91.5978 125.701 92.387 125.701 93.3921C125.701 94.1458 125.455 94.9895 124.969 95.8996C124.455 96.8611 123.566 98.0701 122.339 99.4772L113.308 109.16V113.651Z" fill="white"/>
</g>
<defs>
<filter id="filter0_d" x="0" y="0" width="195" height="195" filterUnits="userSpaceOnUse" color-interpolation-filters="sRGB">
<feFlood flood-opacity="0" result="BackgroundImageFix"/>
<feColorMatrix in="SourceAlpha" type="matrix" values="0 0 0 0 0 0 0 0 0 0 0 0 0 0 0 0 0 0 127 0"/>
<feOffset dy="5"/>
<feGaussianBlur stdDeviation="7.5"/>
<feColorMatrix type="matrix" values="0 0 0 0 0.02 0 0 0 0 0 0 0 0 0 1 0 0 0 0.5 0"/>
<feBlend mode="normal" in2="BackgroundImageFix" result="effect1_dropShadow"/>
<feBlend mode="normal" in="SourceGraphic" in2="effect1_dropShadow" result="shape"/>
</filter>
</defs>
</svg>
