<svg width="195" height="195" viewBox="0 0 195 195" fill="none" xmlns="http://www.w3.org/2000/svg">
<g filter="url(#filter0_d)">
<path fill-rule="evenodd" clip-rule="evenodd" d="M180 10H15V175H180V10ZM104.058 50.4848C107.184 50.4848 109.719 47.9139 109.719 44.7423C109.719 43.6852 110.563 42.8281 111.606 42.8281H141.47C140.668 40.5356 138.531 39.0027 136.133 39H104.058C100.932 39 98.3981 41.5709 98.3981 44.7425C98.3981 47.9141 100.932 50.4848 104.058 50.4848ZM58.7764 111.737H62.5499V121.308H58.7764V111.737ZM62.8972 125.136L66.2744 141.886V141.889C66.4149 142.537 66.2645 143.215 65.8635 143.739C65.6227 144.067 65.2475 144.265 64.8447 144.277H56.4814C56.0786 144.265 55.7034 144.067 55.4626 143.739C55.0612 143.214 54.9108 142.535 55.0517 141.886L58.4291 125.136H62.8972ZM109.719 54.3131C110.76 54.3145 111.604 55.1706 111.605 56.2272V58.1414H96.5113V54.3131H109.719ZM92.738 58.1414V54.3131H87.0777C71.4547 54.3311 58.7941 67.1752 58.7764 83.0251V107.909H62.5499V84.9393C62.5662 70.146 74.3828 58.1579 88.9645 58.1414H92.738ZM98.3981 61.9695H109.719C118.051 61.9792 124.803 68.8296 124.813 77.2826H83.3041C83.3135 68.8294 90.0658 61.9792 98.3981 61.9695ZM124.813 136.621H83.3041V146.192H124.813V136.621ZM116.487 46.6564H121.681L131.808 57.4945C132.166 57.8504 132.367 58.3378 132.365 58.8463C132.364 59.3546 132.16 59.841 131.8 60.1946C131.062 60.8775 129.937 60.8928 129.181 60.2302L116.487 46.6564ZM124.813 81.111H83.3041V132.793H124.813V81.111Z" fill="white"/>
</g>
<defs>
<filter id="filter0_d" x="0" y="0" width="195" height="195" filterUnits="userSpaceOnUse" color-interpolation-filters="sRGB">
<feFlood flood-opacity="0" result="BackgroundImageFix"/>
<feColorMatrix in="SourceAlpha" type="matrix" values="0 0 0 0 0 0 0 0 0 0 0 0 0 0 0 0 0 0 127 0"/>
<feOffset dy="5"/>
<feGaussianBlur stdDeviation="7.5"/>
<feColorMatrix type="matrix" values="0 0 0 0 0.02 0 0 0 0 0 0 0 0 0 1 0 0 0 0.5 0"/>
<feBlend mode="normal" in2="BackgroundImageFix" result="effect1_dropShadow"/>
<feBlend mode="normal" in="SourceGraphic" in2="effect1_dropShadow" result="shape"/>
</filter>
</defs>
</svg>
