<svg width="195" height="195" viewBox="0 0 195 195" fill="none" xmlns="http://www.w3.org/2000/svg">
<g filter="url(#filter0_d)">
<path fill-rule="evenodd" clip-rule="evenodd" d="M15 10H180V175H15V10ZM94.5275 44.6402C92.8689 44.6402 91.524 46.2093 91.524 48.1443C91.524 48.397 91.5919 48.977 91.5919 48.977H103.446C103.446 48.977 103.514 48.397 103.514 48.1443C103.514 46.2093 102.169 44.6402 100.511 44.6402H94.5275ZM74.7738 143.875C76.0479 144.147 77.3612 144.291 78.7015 144.291H116.336C117.677 144.291 118.99 144.147 120.264 143.875V149.676C120.264 150.644 119.591 151.428 118.762 151.428H76.276C75.4459 151.428 74.7738 150.644 74.7738 149.676V143.875ZM118.214 48.9769V40.5795H118.762C120.421 40.5795 121.766 39.0104 121.766 37.0754C121.766 35.1404 120.421 33.5713 118.762 33.5713H76.276C74.6174 33.5713 73.2725 35.1404 73.2725 37.0754C73.2725 39.0104 74.6166 40.5795 76.276 40.5795H76.824V48.9769H82.831V40.5795H112.207V48.9769H118.214ZM76.824 56.0247C77.4398 55.9393 117.598 55.9393 118.214 56.0247C126.005 57.1118 132.066 64.8637 132.066 74.2412V118.93C132.066 127.468 127.043 134.662 120.264 136.704C119.008 137.081 117.692 137.283 116.336 137.283H78.7015C77.3458 137.283 76.0301 137.081 74.7739 136.704C67.9946 134.662 62.9718 127.468 62.9718 118.93V74.2412C62.9718 64.8637 69.0327 57.1118 76.824 56.0247ZM99.9087 117.447C101.042 116.631 101.806 115.351 102.058 113.843C102.308 112.347 102.019 110.845 101.243 109.611L97.5187 103.688L93.7953 109.611C93.0192 110.845 92.7294 112.348 92.9799 113.843C93.2319 115.352 93.9957 116.631 95.1295 117.448C96.6031 118.507 98.4343 118.508 99.9087 117.447ZM107.954 115.184C107.95 115.213 107.943 115.242 107.938 115.271C111.393 110.011 111.676 102.523 108.104 96.8402L97.5187 80.0049L86.9343 96.8402C83.362 102.523 83.6457 110.011 87.1001 115.271C87.0954 115.242 87.0885 115.214 87.0839 115.185C86.5174 111.797 87.1979 108.255 88.9513 105.466L95.0971 95.6902C95.6628 94.791 96.5622 94.2587 97.5195 94.2587C98.4759 94.2587 99.3754 94.791 99.9411 95.6902L106.086 105.465C107.84 108.254 108.521 111.797 107.954 115.184Z" fill="white"/>
</g>
<defs>
<filter id="filter0_d" x="0" y="0" width="195" height="195" filterUnits="userSpaceOnUse" color-interpolation-filters="sRGB">
<feFlood flood-opacity="0" result="BackgroundImageFix"/>
<feColorMatrix in="SourceAlpha" type="matrix" values="0 0 0 0 0 0 0 0 0 0 0 0 0 0 0 0 0 0 127 0"/>
<feOffset dy="5"/>
<feGaussianBlur stdDeviation="7.5"/>
<feColorMatrix type="matrix" values="0 0 0 0 0.02 0 0 0 0 0 0 0 0 0 1 0 0 0 0.5 0"/>
<feBlend mode="normal" in2="BackgroundImageFix" result="effect1_dropShadow"/>
<feBlend mode="normal" in="SourceGraphic" in2="effect1_dropShadow" result="shape"/>
</filter>
</defs>
</svg>
