<svg width="30" height="28" viewBox="0 0 30 28" fill="none" xmlns="http://www.w3.org/2000/svg">
<path d="M29.3812 5.60599H11.8873C11.3177 5.60599 10.9935 6.04639 11.1624 6.59052L13.9299 14.6973C14.0662 15.1348 14.5487 15.4892 15.0069 15.4892H26.4763C26.9344 15.4892 27.4163 15.1348 27.5515 14.6973L29.9633 6.39906C30.1008 5.96103 29.8406 5.60599 29.3812 5.60599Z" fill="white"/>
<path d="M13.4695 27.4453C14.9147 27.4453 16.0864 26.2736 16.0864 24.8283C16.0864 23.3831 14.9147 22.2114 13.4695 22.2114C12.0242 22.2114 10.8525 23.3831 10.8525 24.8283C10.8525 26.2736 12.0242 27.4453 13.4695 27.4453Z" fill="white"/>
<path d="M24.5427 27.4778C25.988 27.4778 27.1596 26.3062 27.1596 24.8609C27.1596 23.4157 25.988 22.244 24.5427 22.244C23.0974 22.244 21.9258 23.4157 21.9258 24.8609C21.9258 26.3062 23.0974 27.4778 24.5427 27.4778Z" fill="white"/>
<path d="M27.6848 18.1524H12.3798L6.25274 0.522125H1.48183C0.663268 0.522125 0 1.18539 0 2.00396C0 2.82252 0.663268 3.48579 1.48183 3.48579H4.14498L10.2721 21.116H27.6848C28.5034 21.116 29.1666 20.4528 29.1666 19.6342C29.1666 18.8156 28.5034 18.1524 27.6848 18.1524Z" fill="white"/>
</svg>
