<svg width="30" height="30" viewBox="0 0 30 30" fill="none" xmlns="http://www.w3.org/2000/svg">
<path d="M22.8081 19.8456C21.828 18.878 20.6045 18.878 19.6306 19.8456C18.8877 20.5823 18.1448 21.3189 17.4144 22.068C17.2147 22.274 17.0461 22.3177 16.8027 22.1804C16.322 21.9182 15.8101 21.7059 15.3481 21.4188C13.1944 20.0641 11.3902 18.3224 9.79208 16.3622C8.99926 15.3883 8.29383 14.3458 7.80066 13.1722C7.70077 12.9349 7.7195 12.7789 7.91302 12.5853C8.65591 11.8674 9.38006 11.1308 10.1105 10.3941C11.128 9.37034 11.128 8.17173 10.1042 7.14169C9.52365 6.55487 8.94307 5.98054 8.3625 5.39373C7.7632 4.79442 7.17014 4.18888 6.5646 3.59582C5.58449 2.64069 4.36092 2.64069 3.38705 3.60207C2.63793 4.33871 1.92002 5.09407 1.1584 5.81823C0.452977 6.4862 0.0971419 7.304 0.0222293 8.25913C-0.0963823 9.81357 0.284423 11.2806 0.821297 12.7102C1.92002 15.6692 3.59306 18.2974 5.62195 20.7071C8.3625 23.9658 11.6337 26.5441 15.4605 28.4044C17.1835 29.2409 18.9689 29.8839 20.9104 29.99C22.2463 30.0649 23.4074 29.7278 24.3376 28.6853C24.9744 27.9736 25.6923 27.3244 26.3665 26.6439C27.3653 25.6326 27.3716 24.409 26.379 23.4102C25.1929 22.2178 24.0005 21.0317 22.8081 19.8456Z" fill="white"/>
<path d="M21.6157 14.8701L23.9193 14.4768C23.5572 12.3606 22.5584 10.444 21.0414 8.92081C19.437 7.31644 17.4081 6.30512 15.1733 5.99298L14.8486 8.30903C16.5779 8.5525 18.151 9.33283 19.3933 10.5751C20.567 11.7488 21.3348 13.2345 21.6157 14.8701Z" fill="white"/>
<path d="M25.2176 4.85683C22.5582 2.19744 19.1933 0.518146 15.4789 0L15.1543 2.31605C18.3631 2.76552 21.2722 4.22008 23.5695 6.51115C25.7482 8.68986 27.1778 11.4429 27.6959 14.4706L29.9995 14.0773C29.3939 10.5689 27.7396 7.38513 25.2176 4.85683Z" fill="white"/>
</svg>
