<svg width="52" height="77" viewBox="0 0 52 77" fill="none" xmlns="http://www.w3.org/2000/svg">
<path d="M13.3925 77C4.83295 48.795 22.9191 38.4966 22.9191 38.4966C21.6536 53.5471 30.2065 65.2724 30.2065 65.2724C33.3521 64.3233 39.3561 59.8876 39.3561 59.8876C39.3561 65.2724 36.188 76.9933 36.188 76.9933C36.188 76.9933 47.2784 68.418 50.7696 54.1753C54.2562 39.9326 44.1283 25.6338 44.1283 25.6338C44.7386 35.7145 41.3283 45.6292 34.6466 53.2038C34.9809 52.8179 35.2614 52.3893 35.4768 51.9249C36.6772 49.5242 38.6045 43.2846 37.4759 28.8355C35.8874 8.55281 17.5096 0 17.5096 0C19.0936 12.3581 14.3438 15.2052 3.21752 38.6627C-7.90877 62.1156 13.3925 77 13.3925 77Z" fill="white"/>
</svg>
