<svg width="20" height="20" viewBox="0 0 20 20" fill="none" xmlns="http://www.w3.org/2000/svg">
<path d="M13.3563 2.28823C10.3051 -0.762744 5.33907 -0.762744 2.28789 2.28823C-0.762629 5.33987 -0.762629 10.3049 2.28789 13.3565C5.00504 16.0729 9.23688 16.3639 12.2861 14.2428C12.3502 14.5464 12.4971 14.8361 12.7332 15.0722L17.1767 19.5154C17.8242 20.1615 18.8706 20.1615 19.5148 19.5154C20.1617 18.8685 20.1617 17.8222 19.5148 17.1774L15.0714 12.7328C14.8365 12.4987 14.5462 12.3512 14.2426 12.2871C16.3651 9.23742 16.0741 5.00653 13.3563 2.28823ZM11.9534 11.9537C9.6754 14.2316 5.96809 14.2316 3.69078 11.9537C1.41414 9.67592 1.41414 5.96951 3.69078 3.69169C5.96809 1.41454 9.6754 1.41454 11.9534 3.69169C14.2313 5.96951 14.2313 9.67592 11.9534 11.9537Z" fill="#FFFDFD"/>
</svg>
