<svg width="33" height="31" viewBox="0 0 33 31" fill="none" xmlns="http://www.w3.org/2000/svg">
<g clip-path="url(#clip0)">
<path d="M9.97256 5.72878L10.6484 5.10487C11.0887 4.69834 10.9957 4.01854 10.4644 3.72426L5.3445 0.888046C4.00029 0.145178 2.29018 0.339088 1.18589 1.36117C0.0788079 2.38243 -0.131228 3.96124 0.673422 5.20047L3.74546 9.92654C4.06459 10.4176 4.80456 10.5027 5.24088 10.0963L5.91764 9.47242L11.0891 14.2396L15.1395 10.4998L9.97256 5.72878Z" fill="white"/>
<path d="M32.1627 3.95333C31.8819 3.40943 31.094 3.274 30.6243 3.70942L28.1515 5.99232C27.7893 6.32672 27.1621 6.32672 26.7999 5.99232C26.4274 5.64845 26.4274 5.08832 26.7999 4.74444L29.2727 2.46154C29.7378 2.03213 29.6041 1.30344 29.0084 1.04128C26.4535 -0.0859334 23.3937 0.399252 21.3923 2.24863C19.5543 3.94463 18.9606 6.46539 19.8194 8.6914L9.12515 18.5641C6.71585 17.7713 3.98455 18.3194 2.14654 20.0163C0.144251 21.8648 -0.381286 24.6906 0.838786 27.0477C1.12344 27.599 1.91325 27.7198 2.37716 27.2916L4.84993 25.0087C5.2233 24.6657 5.83008 24.6648 6.2016 25.0096C6.57394 25.3515 6.57668 25.9084 6.2016 26.2566L3.72883 28.5395C3.2637 28.9689 3.39733 29.6976 3.99303 29.9597C4.91053 30.3647 5.89349 30.5611 6.86988 30.5611C8.60988 30.5611 10.3265 29.9364 11.6081 28.7523C13.447 27.0563 14.0398 24.5355 13.181 22.3095L23.8754 12.4369C26.2838 13.2289 29.016 12.6816 30.8549 10.9847C32.8572 9.13617 33.3828 6.31037 32.1627 3.95333Z" fill="white"/>
<path d="M31.4024 23.0988C28.1577 20.1141 26.3788 18.9283 22.575 16.1973L17.1692 21.1885C19.8429 24.3572 21.462 26.401 24.4985 29.2054C25.4917 30.1223 26.8117 30.5501 28.1101 30.5501C29.0632 30.5501 30.0041 30.3412 30.7948 29.8164C31.9476 29.0494 32.6738 27.8679 32.7868 26.5761C32.8997 25.2825 32.3957 24.0156 31.4024 23.0988ZM28.6492 26.7198C28.2687 27.0399 27.6757 27.0092 27.3117 26.6731L23.5262 23.1782C23.1622 22.8422 23.1289 22.2948 23.4756 21.9434C23.8456 21.5684 24.4747 21.5582 24.8588 21.9128L28.6823 25.4427C29.0664 25.7974 29.0554 26.3782 28.6492 26.7198Z" fill="white"/>
</g>
<defs>
<clipPath id="clip0">
<rect width="32.6271" height="30.122" fill="white" transform="translate(0.186523 0.438965)"/>
</clipPath>
</defs>
</svg>
