<svg width="40" height="40" viewBox="0 0 40 40" fill="none" xmlns="http://www.w3.org/2000/svg">
<path d="M29.5244 22.4307C29.5066 22.4307 29.488 22.4307 29.4703 22.4307C28.1383 22.4293 26.8285 22.7719 25.6678 23.4254C25.6378 23.4476 25.6053 23.4662 25.571 23.4807C24.5128 24.0944 23.6138 24.9485 22.9469 25.974C22.28 26.9995 21.8639 28.1676 21.7322 29.3838C21.7423 29.4558 21.7355 29.5292 21.7125 29.5982C21.6978 29.784 21.6897 29.9715 21.6882 30.1607C21.6741 32.2248 22.4806 34.21 23.9301 35.6795C25.3797 37.149 27.3537 37.9825 29.4178 37.9967H29.4725C31.5308 37.9945 33.5045 37.1771 34.9616 35.7233C36.4187 34.2695 37.2406 32.2977 37.2474 30.2394C37.2543 28.1811 36.4455 26.2039 34.9981 24.7404C33.5506 23.277 31.5824 22.4465 29.5242 22.4307L29.5244 22.4307ZM33.3182 28.3116L28.8515 32.7786C28.7636 32.8665 28.6444 32.9158 28.5201 32.9158C28.3958 32.9158 28.2765 32.8665 28.1886 32.7786L25.6243 30.2141C25.5364 30.1262 25.487 30.0069 25.487 29.8826C25.487 29.7583 25.5365 29.6391 25.6244 29.5512C25.7123 29.4633 25.8315 29.4139 25.9559 29.4139C26.0802 29.414 26.1994 29.4634 26.2873 29.5513L28.5201 31.7842L32.6556 27.6488C32.7439 27.5628 32.8625 27.5151 32.9857 27.516C33.1089 27.5168 33.2268 27.5661 33.314 27.6532C33.4011 27.7403 33.4504 27.8583 33.4513 27.9815C33.4521 28.1047 33.4044 28.2233 33.3185 28.3116H33.3182Z" fill="white"/>
<path d="M24.9754 22.7455C25.5038 20.3693 25.1069 17.8811 23.8655 15.7872L13.9725 2.00317L4.08066 15.7479C3.16187 17.3052 2.70039 19.0898 2.7491 20.8972C2.80688 22.6309 3.29356 24.3232 4.16558 25.8228C6.19277 29.3508 9.95074 31.5424 13.973 31.5424C16.4469 31.5472 18.8519 30.7278 20.8082 29.2135C20.9627 27.8887 21.4187 26.617 22.141 25.4958C22.8634 24.3746 23.833 23.4338 24.9754 22.7455ZM13.8945 27.1299C13.7702 27.1299 13.6509 27.0805 13.563 26.9926C13.4751 26.9047 13.4257 26.7855 13.4257 26.6611C13.4257 26.5368 13.4751 26.4176 13.563 26.3297C13.6509 26.2418 13.7702 26.1924 13.8945 26.1924C17.078 26.1924 19.6679 23.6172 19.6679 20.452C19.6679 20.3277 19.7173 20.2085 19.8052 20.1205C19.8931 20.0326 20.0124 19.9832 20.1367 19.9832C20.261 19.9832 20.3802 20.0326 20.4681 20.1205C20.556 20.2085 20.6054 20.3277 20.6054 20.452C20.6055 24.1342 17.595 27.1299 13.8945 27.1299Z" fill="white"/>
</svg>
